<svg width="5" height="5" viewBox="0 0 5 5" fill="none" xmlns="http://www.w3.org/2000/svg">
<g clip-path="url(#clip0_3_1334)">
<path d="M0.244065 4.99994C0.195771 4.99995 0.14856 4.98564 0.108403 4.95881C0.0682461 4.93198 0.0369469 4.89385 0.0184647 4.84923C-1.74884e-05 4.80462 -0.00485237 4.75552 0.00457163 4.70816C0.0139956 4.66079 0.0372551 4.61729 0.0714081 4.58314L4.58314 0.071425C4.62893 0.0256337 4.69103 -9.15527e-05 4.75579 -9.15527e-05C4.82055 -9.15527e-05 4.88266 0.0256337 4.92845 0.071425C4.97424 0.117216 4.99997 0.179323 4.99997 0.244081C4.99997 0.30884 4.97424 0.370946 4.92845 0.416737L0.416721 4.92846C0.394068 4.95116 0.367154 4.96916 0.337525 4.98142C0.307895 4.99369 0.276133 4.99998 0.244065 4.99994Z" fill="#DC624E"/>
<path d="M4.75589 4.99994C4.72382 4.99998 4.69206 4.99369 4.66243 4.98142C4.6328 4.96916 4.60589 4.95116 4.58323 4.92846L0.0715166 0.416737C0.0257253 0.370946 0 0.30884 0 0.244081C0 0.179323 0.0257253 0.117216 0.0715166 0.071425C0.117308 0.0256337 0.179414 -9.15527e-05 0.244173 -9.15527e-05C0.308931 -9.15527e-05 0.371038 0.0256337 0.416829 0.071425L4.92855 4.58314C4.9627 4.61729 4.98596 4.66079 4.99538 4.70816C5.00481 4.75552 4.99997 4.80462 4.98149 4.84923C4.96301 4.89385 4.93171 4.93198 4.89155 4.95881C4.8514 4.98564 4.80418 4.99995 4.75589 4.99994Z" fill="#DC624E"/>
</g>
<defs>
<clipPath id="clip0_3_1334">
<rect width="5" height="5" fill="white"/>
</clipPath>
</defs>
</svg>
